<svg id="Layer_1" data-name="Layer 1" xmlns="http://www.w3.org/2000/svg" viewBox="0 0 400 400"><defs><style>.cls-1{fill:#fff;}</style></defs><title>age</title><path class="cls-1" d="M194.86,31a169,169,0,0,0,0,338,6.5,6.5,0,0,0,0-13A156,156,0,1,1,346.77,165l-13.85,1.5L357.36,200l16.78-38-14.37,1.56A169,169,0,0,0,194.86,31Z"/><path class="cls-1" d="M348.07,234.39a6.49,6.49,0,1,0,9.19,0l0,0A6.48,6.48,0,0,0,348.07,234.39Z"/><path class="cls-1" d="M334.68,283.14a6.51,6.51,0,0,0-7.09,10.92h0a6.63,6.63,0,0,0,3.51,1,6.52,6.52,0,0,0,3.58-12Z"/><path class="cls-1" d="M266.36,346.25a6.51,6.51,0,0,0,5.73,3.38,5.74,5.74,0,0,0,3.05-.78A6.5,6.5,0,1,0,269.82,337a5.41,5.41,0,0,0-.79.42,6.49,6.49,0,0,0-2.69,8.79Z"/><path class="cls-1" d="M319.27,314.4a6.5,6.5,0,1,0-9.18.37l0,0a6.53,6.53,0,0,0,9.16-.39Z"/><path class="cls-1" d="M341.38,270.65a5.94,5.94,0,0,0,2.6.53,6.5,6.5,0,1,0-6.12-9h0a6.51,6.51,0,0,0,3.49,8.51Z"/><path class="cls-1" d="M298.86,333.51a6.49,6.49,0,0,0,1.22-9.11l-.05,0a6.49,6.49,0,0,0-9.11-1.16,3.79,3.79,0,0,0-.37.31,6.51,6.51,0,1,0,8.31,10Z"/><path class="cls-1" d="M250.51,348.59l-1.17-.58-1.18-.4a8.72,8.72,0,0,0-2.6,0l-1.17.4-1.17.58-1,.85a6.49,6.49,0,0,0,0,9.16l1,.78,1.17.65,1.17.32a6.33,6.33,0,0,0,2.6,0l1.18-.32,1.17-.65,1-.78a6.49,6.49,0,0,0,0-9.16Z"/><path class="cls-1" d="M179.72,210.6A84.23,84.23,0,0,0,158,225.35a78.11,78.11,0,0,0-20,33.15,16.27,16.27,0,1,0,1.56,32.5h110.5a16.27,16.27,0,1,0,1.57-32.5h0a78.09,78.09,0,0,0-20-33.28A84.23,84.23,0,0,0,210,210.47a24.33,24.33,0,0,1-8.65-5.66v-3.05c1.11-2.35,3.9-4,8.91-6.89a84.6,84.6,0,0,0,21.64-16.51A87.54,87.54,0,0,0,251.8,141.5a16.27,16.27,0,1,0-1.69-32.5H139.61a16.27,16.27,0,0,0-1.69,32.5,87.78,87.78,0,0,0,19.89,37.05,84.6,84.6,0,0,0,21.65,16.51c5,2.86,7.8,4.55,8.9,6.89h0v3A24.2,24.2,0,0,1,179.72,210.6ZM250.11,278H139.61a3.25,3.25,0,0,1,0-6.5h110.5a3.25,3.25,0,0,1,0,6.5ZM204,222.16a71.56,71.56,0,0,1,18.65,12.55A63.17,63.17,0,0,1,238,258.5H151.7a63.31,63.31,0,0,1,15.35-23.79,71.56,71.56,0,0,1,18.65-12.55,63,63,0,0,0,9.16-5.59A63.62,63.62,0,0,0,204,222.16ZM139.61,122h110.5a3.25,3.25,0,0,1,0,6.5H139.61a3.25,3.25,0,0,1,0-6.5Zm11.77,19.5h87a74.2,74.2,0,0,1-13.78,25.41,68.41,68.41,0,0,0-60.26-1A75.2,75.2,0,0,1,151.38,141.5ZM186,183.62a97.14,97.14,0,0,1-11.77-7.8,55.47,55.47,0,0,1,40.17.78,99.69,99.69,0,0,1-10.79,7,58.38,58.38,0,0,0-8.9,5.85A58.66,58.66,0,0,0,186,183.62Z"/><circle class="cls-1" cx="194.86" cy="232.5" r="6.5"/><circle class="cls-1" cx="194.86" cy="252" r="6.5"/></svg>