<svg id="Layer_1" data-name="Layer 1" xmlns="http://www.w3.org/2000/svg" viewBox="0 0 400 400"><defs><style>.cls-1{fill:#fff;}</style></defs><title>fitness</title><path class="cls-1" d="M300,72.75l-4.55,4.54L259.07,40.93A19.15,19.15,0,0,0,226,55.84,25.71,25.71,0,0,0,209.08,100l31.82,31.82L131.82,240.9,100,209.09a25.72,25.72,0,0,0-43.82,17.27,19.16,19.16,0,0,0-15.27,32.72l36.36,36.36L72.74,300A19.28,19.28,0,0,0,100,327.25l4.54-4.54,36.36,36.36A19.16,19.16,0,0,0,174,344.16,25.71,25.71,0,0,0,190.9,300l-31.81-31.82L268.16,159.1,300,190.91a25.71,25.71,0,0,0,43.81-17.27,19.16,19.16,0,0,0,14.91-33.09L322.34,104.2l4.54-4.55a19.28,19.28,0,0,0-27.27-27.27ZM90.92,318.16a6.43,6.43,0,0,1-9.09-9.09l4.54-4.54,9.09,9.09Zm68.17,22.73A6.43,6.43,0,1,1,150,350L50,250a6.43,6.43,0,1,1,9.09-9.09Zm22.72-31.82a12.86,12.86,0,0,1-18.18,18.18L72.74,236.36a12.86,12.86,0,0,1,18.18-18.18Zm-31.81-50L140.91,250,250,140.92l9.09,9.09Zm177.25-77.26a12.86,12.86,0,0,1-18.18,0l-90.9-90.89a12.86,12.86,0,0,1,18.18-18.18l90.9,90.89A12.86,12.86,0,0,1,327.25,181.82ZM350,150a6.43,6.43,0,1,1-9.09,9.09l-100-100A6.42,6.42,0,1,1,250,50ZM318.16,90.93l-4.55,4.54-9.09-9.09,4.55-4.54a6.43,6.43,0,1,1,9.09,9.09Z"/></svg>