<svg id="Layer_1" data-name="Layer 1" xmlns="http://www.w3.org/2000/svg" viewBox="0 0 400 400"><defs><style>.cls-1{fill:#fff;stroke:#fff;stroke-miterlimit:10;stroke-width:3px;}</style></defs><title>gender</title><path class="cls-1" d="M324.67,31,294.48,53.37l36.3,6.13-31,23c-2-2-4.12-4-6.26-5.84a102.75,102.75,0,0,0-128-4.57c-2.19,1.61-4.32,3.33-6.38,5.12a103.48,103.48,0,0,0-17.76-5.09,102.71,102.71,0,0,0-52.82,198l-6.69,34.83-24.94-4.79L51.46,328.6l24.95,4.79-5.8,30.14L99.09,369l5.78-30.14,25,4.8,5.47-28.48-25-4.79L117,275.56a102,102,0,0,0,28.87-2.69,103.31,103.31,0,0,0,43.58-22.48,103.49,103.49,0,0,0,37.25,6.95,100.14,100.14,0,0,0,11.21-.62A102.75,102.75,0,0,0,327.06,133,101.49,101.49,0,0,0,317,105.76l31.59-23.37-4.16,38,30-22.22,6.32-57.64Zm-181,232.49a92.34,92.34,0,0,1-30.1,2.15l-4.36-.4L99.06,318l25,4.8-1.83,9.52-25-4.8-5.79,30.15-9.52-1.83,5.8-30.15-24.95-4.79,1.83-9.52,24.94,4.79,10.15-52.8-4.19-1.24a93,93,0,1,1,104-37.61,75,75,0,0,1-34.31-113,75.09,75.09,0,0,1,24.66,93.52l8.72,4.13a84.77,84.77,0,1,0-26.78,32.25c2.56,1.62,5.2,3.14,7.91,4.52A93.48,93.48,0,0,1,143.66,263.49ZM185.26,92A75,75,0,1,1,209,227.55,102.77,102.77,0,0,0,185.26,92Zm180,.86-8.88,6.57,4.16-37.93L304.3,103.16l2.25,3.75A93,93,0,0,1,282,229.43a93.55,93.55,0,0,1-91.62,10.92,93.13,93.13,0,0,1-46.66-128.07l-8.59-4.38a102.8,102.8,0,0,0,28.24,127.65,75,75,0,1,1-27.2-136.28,75.84,75.84,0,0,1,9.62,2.52,74.13,74.13,0,0,1,11.13,4.74,84.8,84.8,0,1,0,20-20.42c-2.56-1.63-5.21-3.15-7.92-4.54.76-.6,1.52-1.19,2.3-1.76A92.95,92.95,0,0,1,295.6,92.12l2.94,3.24,56.21-41.6-36.31-6.13,8.68-6.43,43,7.28Z"/></svg>