<svg id="Layer_1" data-name="Layer 1" xmlns="http://www.w3.org/2000/svg" viewBox="0 0 400 400"><defs><style>.cls-1{fill:#fff;}</style></defs><title>results</title><path class="cls-1" d="M298.85,37.25h-198A29.83,29.83,0,0,0,71,67.06V332.94a29.83,29.83,0,0,0,29.81,29.81H299.19A29.83,29.83,0,0,0,329,332.94V67.06A30.34,30.34,0,0,0,298.85,37.25ZM317,332.94a18,18,0,0,1-18.16,17.82h-198c-9.94,0-18.16-8.23-18.16-17.82V67.06A18.28,18.28,0,0,1,100.81,48.9H299.19a18.28,18.28,0,0,1,18.16,18.16V332.94Z"/><path class="cls-1" d="M165.22,176.36l30.5-30.5,15.42,15.42a5.59,5.59,0,0,0,8.22,0l32.21-32.2,5.82,5.82a2.81,2.81,0,0,0,4.8-1.71l3.08-22.62a2.73,2.73,0,0,0-3.08-3.08l-22.62,3.08a2.81,2.81,0,0,0-1.71,4.8l5.83,5.82-28.1,28.1-15.76-15.76a5.59,5.59,0,0,0-8.22,0l-34.27,34.61a5.59,5.59,0,0,0,0,8.22A5.82,5.82,0,0,0,165.22,176.36Z"/><path class="cls-1" d="M265.61,244.88H134a5.83,5.83,0,0,0,0,11.65H265.27a6,6,0,0,0,5.83-5.82A5.32,5.32,0,0,0,265.61,244.88Z"/><path class="cls-1" d="M265.61,298H134a5.83,5.83,0,0,0,0,11.65H265.27a6,6,0,0,0,5.83-5.82A5.32,5.32,0,0,0,265.61,298Z"/><path class="cls-1" d="M265.61,191.78H139.87V100a5.83,5.83,0,0,0-11.65,0V197.6a6,6,0,0,0,5.82,5.83H265.27a6,6,0,0,0,5.83-5.83A5.31,5.31,0,0,0,265.61,191.78Z"/></svg>