<svg id="Layer_1" data-name="Layer 1" xmlns="http://www.w3.org/2000/svg" viewBox="0 0 400 400"><defs><style>.cls-1{fill:#fff;}</style></defs><title>training</title><path class="cls-1" d="M309.92,227.77V72.13a23.78,23.78,0,0,0-23.78-23.78h-5.95V36.46a5.95,5.95,0,1,0-11.89,0V48.35H238.58V36.46a5.95,5.95,0,1,0-11.89,0V48.35H197V36.46a5.95,5.95,0,1,0-11.89,0V48.35H155.35V36.46a5.95,5.95,0,1,0-11.89,0V48.35H113.73V36.46a5.95,5.95,0,1,0-11.89,0V48.35H72.12V36.46a5.95,5.95,0,1,0-11.89,0V48.35H54.28A23.78,23.78,0,0,0,30.5,72.13V298a23.78,23.78,0,0,0,23.78,23.78H230.85a71.34,71.34,0,1,0,79.07-94ZM42.39,72.13A11.89,11.89,0,0,1,54.28,60.24h5.95V78.07a5.95,5.95,0,1,0,11.89,0V60.24h29.72V78.07a5.95,5.95,0,1,0,11.89,0V60.24h29.73V78.07a5.95,5.95,0,1,0,11.89,0V60.24h29.72V78.07a5.95,5.95,0,1,0,11.89,0V60.24h29.73V78.07a5.95,5.95,0,1,0,11.89,0V60.24H268.3V78.07a5.95,5.95,0,1,0,11.89,0V60.24h5.95A11.89,11.89,0,0,1,298,72.13v29.72H42.39Zm185.37,237.8H54.28A11.89,11.89,0,0,1,42.39,298V113.74H298v113a70.9,70.9,0,0,0-70.27,83.23ZM298,357.49A59.45,59.45,0,1,1,357.48,298,59.45,59.45,0,0,1,298,357.49Z"/><path class="cls-1" d="M66.17,197h53.51v-53.5H66.17Zm11.89-41.61h29.73v29.72H78.06Z"/><path class="cls-1" d="M143.46,197H197v-53.5h-53.5Zm11.89-41.61h29.72v29.72H155.35Z"/><path class="cls-1" d="M66.17,280.2h53.51V226.7H66.17Zm11.89-41.61h29.73v29.72H78.06Z"/><path class="cls-1" d="M143.46,280.2H197V226.7h-53.5Zm11.89-41.61h29.72v29.72H155.35Z"/><path class="cls-1" d="M274.25,143.47H220.74V197h53.51Zm-11.89,41.61H232.63V155.36h29.73Z"/><path class="cls-1" d="M321.81,292.09H304V268.31a5.95,5.95,0,0,0-11.89,0V304h29.73a5.95,5.95,0,0,0,0-11.89Z"/></svg>